<?xml version="1.0" encoding="UTF-8" standalone="no"?>
<!DOCTYPE svg PUBLIC "-//W3C//DTD SVG 1.1//EN" "http://www.w3.org/Graphics/SVG/1.1/DTD/svg11.dtd">
<svg width="100%" height="100%" viewBox="0 0 601 186" version="1.1" xmlns="http://www.w3.org/2000/svg" xmlns:xlink="http://www.w3.org/1999/xlink" xml:space="preserve" xmlns:serif="http://www.serif.com/" style="fill-rule:evenodd;clip-rule:evenodd;stroke-linejoin:round;stroke-miterlimit:2;">
    <g transform="matrix(1,0,0,1,-608.289,-505.29)">
        <g transform="matrix(1.04113,0,0,1.07262,276.451,200.739)">
            <path d="M327.942,311.72C327.942,306.94 329.155,302.67 331.58,298.909C334.005,295.148 337.432,292.196 341.861,290.052C346.29,287.908 351.351,286.836 357.045,286.836C364.566,286.836 370.542,288.611 374.97,292.161C379.399,295.711 381.789,300.368 382.14,306.132L368.011,309.717C367.8,306.554 366.587,304.164 364.373,302.547C362.159,300.93 359.224,300.122 355.569,300.122C351.491,300.122 348.311,301.088 346.026,303.021C343.741,304.955 342.599,307.362 342.599,310.244C342.599,314.321 345.165,317.098 350.296,318.574L361.473,321.843C367.308,323.53 371.684,326.166 374.601,329.751C377.518,333.336 378.977,337.695 378.977,342.826C378.977,347.466 377.729,351.613 375.234,355.269C372.738,358.924 369.206,361.789 364.637,363.862C360.068,365.936 354.76,366.973 348.715,366.973C340.842,366.973 334.515,365.18 329.735,361.595C324.955,358.01 322.284,353.054 321.721,346.728L335.745,343.248C335.816,346.552 337.098,349.1 339.594,350.893C342.089,352.685 345.551,353.582 349.98,353.582C354.338,353.582 357.836,352.685 360.472,350.893C363.108,349.1 364.426,346.728 364.426,343.775C364.426,341.737 363.776,340.015 362.475,338.609C361.175,337.203 359.154,336.078 356.412,335.234L345.13,331.755C339.436,330.068 335.148,327.484 332.266,324.005C329.383,320.525 327.942,316.43 327.942,311.72Z" style="fill-rule:nonzero;stroke:black;stroke-width:5.89px;"/>
            <path d="M442.243,301.914L420.522,301.914L411.559,365.602L397.219,365.602L406.076,301.914L384.249,301.914L386.253,288.312L444.141,288.312L442.243,301.914Z" style="fill-rule:nonzero;stroke:black;stroke-width:5.89px;"/>
            <path d="M448.359,288.312L462.805,288.312L456.267,334.602C456.056,335.937 455.951,337.238 455.951,338.503C455.951,343.494 457.375,347.185 460.221,349.575C463.068,351.965 466.706,353.16 471.135,353.16C476.337,353.16 480.625,351.631 483.999,348.573C487.373,345.515 489.482,340.964 490.326,334.918L496.863,288.312L511.309,288.312L504.35,337.871C503.014,347.29 499.341,354.478 493.331,359.434C487.321,364.39 479.816,366.868 470.819,366.868C465.265,366.868 460.274,365.848 455.846,363.81C451.417,361.771 447.902,358.731 445.301,354.689C442.7,350.647 441.4,345.708 441.4,339.874C441.4,337.695 441.54,335.621 441.822,333.653L448.359,288.312Z" style="fill-rule:nonzero;stroke:black;stroke-width:5.89px;"/>
            <path d="M547.265,288.312C553.943,288.312 559.901,289.753 565.138,292.635C570.375,295.517 574.452,299.612 577.369,304.919C580.287,310.227 581.745,316.36 581.745,323.319C581.745,331.333 579.988,338.556 576.473,344.988C572.958,351.42 568.09,356.464 561.869,360.119C555.648,363.775 548.671,365.602 540.939,365.602L509.622,365.602L520.483,288.312L547.265,288.312ZM538.092,352.316C543.645,352.316 548.566,351.069 552.854,348.573C557.142,346.078 560.463,342.633 562.818,338.24C565.173,333.846 566.351,328.873 566.351,323.319C566.351,316.782 564.505,311.545 560.815,307.608C557.124,303.672 552.116,301.703 545.789,301.703L533.03,301.703L525.966,352.316L538.092,352.316Z" style="fill-rule:nonzero;stroke:black;stroke-width:5.89px;"/>
            <path d="M606.841,301.914L604.31,320.156L634.573,320.156L632.569,333.02L602.412,332.915L599.776,352L633.624,352.105L631.726,365.602L583.432,365.602L594.293,288.312L642.586,288.312L640.583,301.914L606.841,301.914Z" style="fill-rule:nonzero;stroke:black;stroke-width:5.89px;"/>
            <path d="M653.869,288.312L668.209,288.312L695.835,342.405L703.533,288.312L717.768,288.312L706.907,365.602L692.672,365.602L664.94,311.51L657.348,365.602L643.008,365.602L653.869,288.312Z" style="fill-rule:nonzero;stroke:black;stroke-width:5.89px;"/>
            <path d="M777.976,301.914L756.255,301.914L747.292,365.602L732.952,365.602L741.809,301.914L719.982,301.914L721.985,288.312L779.874,288.312L777.976,301.914Z" style="fill-rule:nonzero;stroke:black;stroke-width:5.89px;"/>
        </g>
        <g transform="matrix(1.03128,0,0,1.07262,494.335,293.916)">
            <path d="M361.684,288.312C368.362,288.312 374.32,289.753 379.557,292.635C384.794,295.517 388.871,299.612 391.789,304.919C394.706,310.227 396.164,316.36 396.164,323.319C396.164,331.333 394.407,338.556 390.892,344.988C387.377,351.42 382.509,356.464 376.288,360.119C370.067,363.775 363.09,365.602 355.358,365.602L324.041,365.602L334.902,288.312L361.684,288.312ZM352.511,352.316C358.064,352.316 362.985,351.069 367.273,348.573C371.561,346.078 374.882,342.633 377.237,338.24C379.592,333.846 380.77,328.873 380.77,323.319C380.77,316.782 378.924,311.545 375.234,307.608C371.543,303.672 366.535,301.703 360.208,301.703L347.449,301.703L340.385,352.316L352.511,352.316Z" style="fill-rule:nonzero;stroke:black;stroke-width:5.92px;"/>
            <path d="M421.26,301.914L418.729,320.156L448.992,320.156L446.988,333.02L416.831,332.915L414.195,352L448.043,352.105L446.145,365.602L397.852,365.602L408.712,288.312L457.005,288.312L455.002,301.914L421.26,301.914Z" style="fill-rule:nonzero;stroke:black;stroke-width:5.92px;"/>
            <path d="M459.22,311.72C459.22,306.94 460.432,302.67 462.858,298.909C465.283,295.148 468.71,292.196 473.138,290.052C477.567,287.908 482.628,286.836 488.322,286.836C495.844,286.836 501.819,288.611 506.248,292.161C510.676,295.711 513.066,300.368 513.418,306.132L499.288,309.717C499.077,306.554 497.865,304.164 495.651,302.547C493.436,300.93 490.501,300.122 486.846,300.122C482.769,300.122 479.588,301.088 477.303,303.021C475.019,304.955 473.876,307.362 473.876,310.244C473.876,314.321 476.442,317.098 481.574,318.574L492.751,321.843C498.585,323.53 502.961,326.166 505.879,329.751C508.796,333.336 510.255,337.695 510.255,342.826C510.255,347.466 509.007,351.613 506.511,355.269C504.016,358.924 500.483,361.789 495.914,363.862C491.345,365.936 486.038,366.973 479.992,366.973C472.119,366.973 465.792,365.18 461.012,361.595C456.232,358.01 453.561,353.054 452.999,346.728L467.023,343.248C467.093,346.552 468.376,349.1 470.871,350.893C473.367,352.685 476.829,353.582 481.257,353.582C485.616,353.582 489.113,352.685 491.749,350.893C494.385,349.1 495.703,346.728 495.703,343.775C495.703,341.737 495.053,340.015 493.753,338.609C492.452,337.203 490.431,336.078 487.69,335.234L476.407,331.755C470.713,330.068 466.425,327.484 463.543,324.005C460.661,320.525 459.22,316.43 459.22,311.72Z" style="fill-rule:nonzero;stroke:black;stroke-width:5.92px;"/>
            <path d="M513.207,365.602L524.068,288.312L538.513,288.312L527.653,365.602L513.207,365.602Z" style="fill-rule:nonzero;stroke:black;stroke-width:5.92px;"/>
            <path d="M575.946,320.894L612.008,320.894L605.681,365.602L593.239,365.602L593.555,358.854C590.884,361.525 587.615,363.511 583.749,364.811C579.882,366.112 575.981,366.762 572.045,366.762C565.507,366.762 559.69,365.356 554.594,362.544C549.497,359.733 545.49,355.655 542.573,350.313C539.656,344.97 538.197,338.714 538.197,331.544C538.197,323.108 539.902,315.499 543.311,308.715C546.72,301.932 551.501,296.589 557.651,292.688C563.802,288.786 570.814,286.836 578.687,286.836C587.404,286.836 594.732,288.822 600.672,292.793C606.612,296.765 610.637,301.985 612.746,308.452L599.671,313.408C598.195,309.33 595.611,306.15 591.921,303.865C588.23,301.58 583.96,300.438 579.109,300.438C573.837,300.438 569.215,301.738 565.243,304.339C561.272,306.94 558.214,310.508 556.07,315.042C553.926,319.576 552.854,324.725 552.854,330.489C552.854,335.551 553.873,339.804 555.912,343.248C557.95,346.693 560.586,349.241 563.82,350.893C567.054,352.545 570.428,353.371 573.942,353.371C579.004,353.371 583.714,351.982 588.072,349.206C592.43,346.429 595.242,341.737 596.507,335.129L596.824,333.547L574.153,333.547L575.946,320.894Z" style="fill-rule:nonzero;stroke:black;stroke-width:5.92px;"/>
            <path d="M625.715,288.312L640.056,288.312L667.682,342.405L675.379,288.312L689.614,288.312L678.754,365.602L664.519,365.602L636.787,311.51L629.195,365.602L614.855,365.602L625.715,288.312Z" style="fill-rule:nonzero;stroke:black;stroke-width:5.92px;"/>
        </g>
    </g>
</svg>
