<?xml version="1.0" encoding="UTF-8" standalone="no"?>
<!DOCTYPE svg PUBLIC "-//W3C//DTD SVG 1.1//EN" "http://www.w3.org/Graphics/SVG/1.1/DTD/svg11.dtd">
<svg width="100%" height="100%" viewBox="0 0 331 331" version="1.1" xmlns="http://www.w3.org/2000/svg" xmlns:xlink="http://www.w3.org/1999/xlink" xml:space="preserve" xmlns:serif="http://www.serif.com/" style="fill-rule:evenodd;clip-rule:evenodd;stroke-linejoin:round;stroke-miterlimit:2;">
    <g transform="matrix(1,0,0,1,-638.249,-935.47)">
        <circle cx="803.686" cy="1100.91" r="165.437" style="fill:rgb(92,167,85);"/>
    </g>
    <g id="call_black_24dp.svg" transform="matrix(6.02374,0,0,6.02374,165.437,170.437)">
        <g transform="matrix(1,0,0,1,-12,-12)">
            <rect x="0" y="0" width="24" height="24" style="fill:none;fill-rule:nonzero;"/>
            <path d="M20.01,15.38C18.78,15.38 17.59,15.18 16.48,14.82C16.13,14.7 15.74,14.79 15.47,15.06L13.9,17.03C11.07,15.68 8.42,13.13 7.01,10.2L8.96,8.54C9.23,8.26 9.31,7.87 9.2,7.52C8.83,6.41 8.64,5.22 8.64,3.99C8.64,3.45 8.19,3 7.65,3L4.19,3C3.65,3 3,3.24 3,3.99C3,13.28 10.73,21 20.01,21C20.72,21 21,20.37 21,19.82L21,16.37C21,15.83 20.55,15.38 20.01,15.38Z" style="fill:white;fill-rule:nonzero;"/>
        </g>
    </g>
</svg>
